<svg width="144" height="77" viewBox="0 0 144 77" fill="none" xmlns="http://www.w3.org/2000/svg">
<path d="M3.51552 47.2431L14.0973 52.6768L19.3024 63.3727L24.679 58.1104L24.7647 50.1313L34.1736 40.9223L41.8957 64.9454L49.9605 57.0519L43.5826 31.7132L54.3357 21.1886C56.5627 19.0089 56.6011 15.4365 54.4214 13.2095C52.2417 10.9824 48.6693 10.9441 46.4422 13.1238L35.6891 23.6484L10.4933 16.7278L2.42844 24.6212L26.2802 32.8574L16.8712 42.0665L8.89207 41.9808L3.51552 47.2431Z" stroke="#FFFDFD" stroke-width="4" stroke-linecap="round" stroke-linejoin="round"/>
<path d="M55.012 22.296C55.012 15.124 59.676 9.976 66.936 9.976C71.6 9.976 74.68 11.824 74.68 14.42C74.68 16.092 73.492 17.368 71.82 17.368C70.544 17.368 68.916 16.312 66.936 16.312C64.12 16.312 62.14 18.6 62.14 22.164C62.14 25.772 64.032 28.016 67.2 28.016C69.224 28.016 70.808 26.96 71.952 26.96C73.536 26.96 74.636 28.324 74.636 29.952C74.636 32.372 71.336 34.572 66.496 34.572C59.72 34.572 55.012 29.644 55.012 22.296ZM75.8948 22.296C75.8948 15.08 80.8228 9.888 87.6428 9.888C94.5068 9.888 99.3468 15.08 99.3468 22.296C99.3468 29.512 94.5068 34.704 87.6428 34.704C80.8228 34.704 75.8948 29.512 75.8948 22.296ZM83.0668 22.208C83.0668 25.86 85.0028 28.104 87.6428 28.104C90.2828 28.104 92.2188 25.816 92.2188 22.208C92.2188 18.688 90.1948 16.4 87.6428 16.4C85.0908 16.4 83.0668 18.6 83.0668 22.208ZM101.418 22.296C101.418 15.08 106.346 9.888 113.166 9.888C120.03 9.888 124.87 15.08 124.87 22.296C124.87 29.512 120.03 34.704 113.166 34.704C106.346 34.704 101.418 29.512 101.418 22.296ZM108.59 22.208C108.59 25.86 110.526 28.104 113.166 28.104C115.806 28.104 117.742 25.816 117.742 22.208C117.742 18.688 115.718 16.4 113.166 16.4C110.614 16.4 108.59 18.6 108.59 22.208ZM128.526 5.488C128.526 2.1 129.626 0.427999 132.002 0.427999C134.334 0.427999 135.434 2.1 135.434 5.488V29.248C135.434 32.636 134.378 34.308 132.002 34.308C129.626 34.308 128.526 32.636 128.526 29.248V5.488ZM57.784 49.972H57.52C55.056 49.972 53.604 48.784 53.604 46.98C53.604 45.088 55.012 44.032 57.784 43.9V40.864C57.784 37.476 58.884 35.804 61.26 35.804C63.592 35.804 64.692 37.476 64.692 40.864V43.9H65.308C68.08 43.9 69.664 45.088 69.664 46.98C69.664 48.916 68.212 49.972 65.264 49.972H64.692V62.248C64.692 65.636 63.636 67.308 61.26 67.308C58.884 67.308 57.784 65.636 57.784 62.248V49.972ZM71.0283 62.248V48.3C71.0283 44.912 72.1283 43.284 74.5043 43.284C75.8683 43.284 76.9683 43.988 77.8043 45.484C79.2563 43.944 80.8843 43.152 82.5123 43.152C84.4483 43.152 86.0323 44.736 86.0323 46.584C86.0323 49.356 82.9523 49.576 80.1363 50.896C78.2003 51.82 77.9803 52.656 77.9803 55.032V62.248C77.9803 65.636 76.8803 67.308 74.5043 67.308C72.1283 67.308 71.0283 65.636 71.0283 62.248ZM94.8712 62.248C94.8712 65.636 93.8152 67.308 91.4392 67.308C89.0632 67.308 87.9632 65.636 87.9632 62.248V48.3C87.9632 44.912 89.0632 43.284 91.4392 43.284C93.7712 43.284 94.8712 44.912 94.8712 48.3V62.248ZM87.4352 37.432C87.4352 35.232 89.2392 33.428 91.4392 33.428C93.6392 33.428 95.3992 35.232 95.3992 37.432C95.3992 39.676 93.6392 41.436 91.4392 41.436C89.1952 41.436 87.4352 39.676 87.4352 37.432ZM106.812 71.62C106.812 75.008 105.712 76.68 103.336 76.68C100.96 76.68 99.8604 75.008 99.8604 71.62V48.3C99.8604 44.912 100.96 43.284 103.336 43.284C104.7 43.284 105.8 43.988 106.636 45.484C108.044 43.944 109.98 43.108 112.356 43.108C118.164 43.108 122.916 48.168 122.916 55.296C122.916 62.292 118.076 67.748 112.268 67.748C110.156 67.748 108.396 67.088 106.812 65.724V71.62ZM106.68 55.384C106.68 59.036 108.616 61.28 111.256 61.28C113.896 61.28 115.832 58.992 115.832 55.384C115.832 51.864 113.808 49.576 111.256 49.576C108.704 49.576 106.68 51.776 106.68 55.384ZM132.973 67.66C127.825 67.66 124.393 65.328 124.393 62.512C124.393 60.752 125.581 59.388 127.033 59.388C129.189 59.388 131.301 61.412 133.457 61.412C134.645 61.412 135.393 60.752 135.393 60.004C135.393 58.904 134.117 58.464 131.609 57.452C127.341 55.692 125.009 54.064 125.009 50.368C125.009 46.232 128.529 42.888 133.677 42.888C138.517 42.888 141.817 45.308 141.817 47.728C141.817 49.356 140.541 50.632 138.957 50.632C137.285 50.632 135.261 48.96 133.369 48.96C132.357 48.96 131.785 49.488 131.785 50.148C131.785 51.468 133.677 51.732 136.581 53.008C140.409 54.724 142.345 56.572 142.345 59.74C142.345 64.14 138.517 67.66 132.973 67.66Z" fill="white"/>
</svg>
